<svg width="160" height="17" viewBox="0 0 160 17" fill="none" xmlns="http://www.w3.org/2000/svg">
<path d="M13.024 0.199999H14.776V17H13.024V0.199999ZM2.512 17H0.736V0.199999H2.512V17ZM13.192 9.248H2.32V7.688H13.192V9.248ZM23.8594 17V0.199999H25.6354V17H23.8594ZM34.7016 17V0.199999H41.5416C43.3336 0.199999 44.9016 0.559999 46.2456 1.28C47.6056 1.984 48.6616 2.968 49.4136 4.232C50.1656 5.496 50.5416 6.952 50.5416 8.6C50.5416 10.248 50.1656 11.704 49.4136 12.968C48.6616 14.232 47.6056 15.224 46.2456 15.944C44.9016 16.648 43.3336 17 41.5416 17H34.7016ZM36.4776 15.464H41.4456C42.9336 15.464 44.2216 15.176 45.3096 14.6C46.4136 14.008 47.2696 13.2 47.8776 12.176C48.4856 11.136 48.7896 9.944 48.7896 8.6C48.7896 7.24 48.4856 6.048 47.8776 5.024C47.2696 4 46.4136 3.2 45.3096 2.624C44.2216 2.032 42.9336 1.736 41.4456 1.736H36.4776V15.464ZM59.7137 7.712H68.5937V9.224H59.7137V7.712ZM59.9057 15.464H70.0097V17H58.1297V0.199999H69.6498V1.736H59.9057V15.464ZM75.0964 17L82.7764 0.199999H84.5284L92.2084 17H90.3364L83.2804 1.232H84.0004L76.9444 17H75.0964ZM78.1204 12.512L78.6484 11.072H88.4164L88.9444 12.512H78.1204ZM101.536 17L95.8724 0.199999H97.6964L103 16.016H102.088L107.56 0.199999H109.192L114.592 16.016H113.728L119.08 0.199999H120.784L115.12 17H113.248L108.088 2H108.568L103.384 17H101.536ZM124.437 17L132.117 0.199999H133.869L141.549 17H139.677L132.621 1.232H133.341L126.285 17H124.437ZM127.461 12.512L127.989 11.072H137.757L138.285 12.512H127.461ZM150.952 17V10.76L151.36 11.864L144.232 0.199999H146.128L152.392 10.448H151.384L157.648 0.199999H159.424L152.296 11.864L152.704 10.76V17H150.952Z" fill="white"/>
</svg>
